<?xml version="1.0" encoding="UTF-8"?>
<svg width="153px" height="152px" viewBox="0 0 153 152" version="1.1" xmlns="http://www.w3.org/2000/svg" xmlns:xlink="http://www.w3.org/1999/xlink">
    <polygon id="path78" fill="#F9F4E9" transform="translate(75.590665, 75.590665) scale(-1, 1) rotate(-180.000000) translate(-75.590665, -75.590665) " points="151.18133 1.42108547e-14 0 1.42108547e-14 0 151.18133 151.18133 151.18133"></polygon>
    <g id="g80" transform="translate(110.278531, 69.161465) scale(-1, 1) rotate(-180.000000) translate(-110.278531, -69.161465) translate(95.611864, 54.494799)" fill="#503C3A">
        <path d="M25.3333327,14.6666663 C25.3333327,20.6599995 20.5826662,25.702666 14.589333,25.702666 C8.59733312,25.702666 3.84666657,20.6599995 3.84666657,14.6666663 C3.84666657,8.63866645 8.59733312,3.63199991 14.589333,3.63199991 C20.5826662,3.63199991 25.3333327,8.63866645 25.3333327,14.6666663 M0.922666644,14.6666663 C0.922666644,22.1946661 7.06266649,28.3333326 14.589333,28.3333326 C22.0813328,28.3333326 28.2559993,22.1946661 28.2559993,14.6666663 C28.2559993,7.13866649 22.0813328,0.999999975 14.589333,0.999999975 C7.06266649,0.999999975 0.922666644,7.13866649 0.922666644,14.6666663" id="path82"></path>
    </g>
    <g id="g84" transform="translate(110.170397, 68.898398) scale(-1, 1) rotate(-180.000000) translate(-110.170397, -68.898398) translate(103.503731, 61.565065)" fill="#503C3A">
        <polygon id="path86" points="6.6666665 5.3333332 2.62933327 0.13733333 0.562666653 0.889333311 5.31999987 7.08666649 0.562666653 13.2519997 2.7226666 14.0039996 6.6666665 8.80799978 10.6733331 14.0039996 12.833333 13.2519997 8.0119998 7.05466649 12.7399997 0.889333311 10.6733331 0.13733333"></polygon>
    </g>
    <g id="g88" transform="translate(74.532398, 102.321597) scale(-1, 1) rotate(-180.000000) translate(-74.532398, -102.321597) translate(43.199066, 70.988265)" fill="#503C3A">
        <path d="M51.9999987,30.6666659 C51.9999987,42.6506656 43.2586656,52.097332 31.2746659,52.097332 C19.2906662,52.097332 10.4079997,42.6506656 10.4079997,30.6666659 C10.4079997,18.8239995 19.2906662,9.3773331 31.2746659,9.3773331 C43.2586656,9.3773331 51.9999987,18.8239995 51.9999987,30.6666659 M0.114666664,30.6666659 C0.114666664,47.5853321 14.4959996,61.4026651 31.2746659,61.4026651 C48.0519988,61.4026651 62.4333318,47.5853321 62.4333318,30.6666659 C62.4333318,13.889333 48.0519988,0.0719999982 31.2746659,0.0719999982 C14.4959996,0.0719999982 0.114666664,13.889333 0.114666664,30.6666659" id="path90"></path>
    </g>
</svg>
