<?xml version="1.0" encoding="UTF-8"?>
<svg width="153px" height="152px" viewBox="0 0 153 152" version="1.1" xmlns="http://www.w3.org/2000/svg" xmlns:xlink="http://www.w3.org/1999/xlink">
    <g id="Group-10" fill-rule="nonzero">
        <polygon id="path58" fill="#F9F4E9" transform="translate(76.429298, 76.212052) scale(-1, 1) rotate(-180.000000) translate(-76.429298, -76.212052) " points="152.019963 0.621386754 0.838633496 0.621386754 0.838633496 151.802716 152.019963 151.802716"></polygon>
        <polygon id="path62" fill="#503C3A" transform="translate(36.063299, 89.701251) scale(-1, 1) rotate(-180.000000) translate(-36.063299, -89.701251) " points="46.001299 129.511917 56.9999654 125.422584 26.1252995 49.8905855 15.1266331 53.9812521"></polygon>
        <polygon id="path66" fill="#503C3A" transform="translate(76.428498, 89.701251) scale(-1, 1) rotate(-180.000000) translate(-76.428498, -89.701251) " points="86.3671647 129.511917 97.3644977 125.422584 66.4911652 49.8905855 55.4924988 53.9812521"></polygon>
        <polygon id="path70" fill="#503C3A" transform="translate(116.794364, 89.701251) scale(-1, 1) rotate(-180.000000) translate(-116.794364, -89.701251) " points="126.73303 129.511917 137.730363 125.422584 106.857031 49.8905855 95.8583645 53.9812521"></polygon>
    </g>
    <g id="g60" transform="translate(36.001300, 89.890584) scale(-1, 1) rotate(-180.000000) translate(-36.001300, -89.890584) translate(15.001300, 49.890584)"></g>
    <g id="g64" transform="translate(76.367165, 89.890584) scale(-1, 1) rotate(-180.000000) translate(-76.367165, -89.890584) translate(55.367165, 49.890584)"></g>
    <g id="g68" transform="translate(116.733031, 89.890584) scale(-1, 1) rotate(-180.000000) translate(-116.733031, -89.890584) translate(95.733031, 49.890584)"></g>
</svg>
