<?xml version="1.0" encoding="UTF-8"?>
<svg width="153px" height="152px" viewBox="0 0 153 152" version="1.1" xmlns="http://www.w3.org/2000/svg" xmlns:xlink="http://www.w3.org/1999/xlink">
    <polygon id="path92" fill="#F9F4E9" transform="translate(75.590665, 75.590665) scale(-1, 1) rotate(-180.000000) translate(-75.590665, -75.590665) " points="151.18133 -2.13162821e-13 0 -2.13162821e-13 0 151.18133 151.18133 151.18133"></polygon>
    <g id="g94" transform="translate(42.803200, 99.511730) scale(-1, 1) rotate(-180.000000) translate(-42.803200, -99.511730) translate(11.303200, 68.511730)" fill="#503C3A">
        <path d="M51.9999987,30.6666659 C51.9999987,42.6506656 43.2573323,52.097332 31.2733326,52.097332 C19.2893329,52.097332 10.4079997,42.6506656 10.4079997,30.6666659 C10.4079997,18.8239995 19.2893329,9.3773331 31.2733326,9.3773331 C43.2573323,9.3773331 51.9999987,18.8239995 51.9999987,30.6666659 M0.114666664,30.6666659 C0.114666664,47.5853321 14.4959996,61.4039985 31.2733326,61.4039985 C48.0519988,61.4039985 62.4319984,47.5853321 62.4319984,30.6666659 C62.4319984,13.889333 48.0519988,0.0719999982 31.2733326,0.0719999982 C14.4959996,0.0719999982 0.114666664,13.889333 0.114666664,30.6666659" id="path96"></path>
    </g>
    <g id="g98" transform="translate(86.814932, 84.024797) scale(-1, 1) rotate(-180.000000) translate(-86.814932, -84.024797) translate(33.814932, 30.524797)" fill="#503C3A">
        <path d="M94.6666643,53.333332 C94.6666643,76.4573314 76.3386648,95.9133309 53.2159987,95.9133309 C30.0933326,95.9133309 11.7639997,76.4573314 11.7639997,53.333332 C11.7639997,30.0706659 30.0933326,10.7546664 53.2159987,10.7546664 C76.3386648,10.7546664 94.6666643,30.0706659 94.6666643,53.333332 M0.483999988,53.333332 C0.483999988,82.3773313 24.1719994,106.065331 53.2159987,106.065331 C82.1186646,106.065331 105.946664,82.3773313 105.946664,53.333332 C105.946664,24.2906661 82.1186646,0.602666652 53.2159987,0.602666652 C24.1719994,0.602666652 0.483999988,24.2906661 0.483999988,53.333332" id="path100"></path>
    </g>
</svg>
