<?xml version="1.0" encoding="UTF-8"?>
<svg width="153px" height="153px" viewBox="0 0 153 153" version="1.1" xmlns="http://www.w3.org/2000/svg" xmlns:xlink="http://www.w3.org/1999/xlink">
    <polygon id="path208" fill="#F9F4E9" transform="translate(75.590665, 75.590665) scale(-1, 1) rotate(-180.000000) translate(-75.590665, -75.590665) " points="151.18133 -7.10542736e-14 0 -7.10542736e-14 0 151.18133 151.18133 151.18133"></polygon>
    <polygon id="path210" fill="#503C3A" transform="translate(75.590665, 92.248664) scale(-1, 1) rotate(-180.000000) translate(-75.590665, -92.248664) " points="110.838664 88.7239978 40.3426657 88.7239978 40.3426657 95.7733309 110.838664 95.7733309"></polygon>
    <g id="g212" transform="translate(76.185998, 122.729864) scale(-1, 1) rotate(-180.000000) translate(-76.185998, -122.729864) translate(69.519332, 116.729864)" fill="#503C3A">
        <path d="M6.6666665,0 C5.06799987,0 3.68266657,0.585333319 2.50799994,1.76266662 C1.33066663,2.93599993 0.745333315,4.37066656 0.745333315,6.06266652 C0.745333315,7.65999981 1.33066663,9.04533311 2.50799994,10.2226664 C3.68266657,11.397333 5.06799987,11.9839997 6.6666665,11.9839997 C8.35999979,11.9839997 9.79066642,11.397333 10.9679997,10.2226664 C12.141333,9.04533311 12.7306663,7.65999981 12.7306663,6.06266652 C12.7306663,4.37066656 12.141333,2.93599993 10.9679997,1.76266662 C9.79066642,0.585333319 8.35999979,0 6.6666665,0" id="path214"></path>
    </g>
</svg>
