<?xml version="1.0" encoding="UTF-8"?>
<svg width="153px" height="153px" viewBox="0 0 153 153" version="1.1" xmlns="http://www.w3.org/2000/svg" xmlns:xlink="http://www.w3.org/1999/xlink">
    <!-- Generator: Sketch 59.1 (86144) - https://sketch.com -->
    <title>autosuficiencia-radical</title>
    <desc>Created with Sketch.</desc>
    <g id="Page-1" stroke="none" stroke-width="1" fill="none" fill-rule="evenodd">
        <g id="Artboard" transform="translate(-332.000000, -865.000000)" fill-rule="nonzero">
            <g id="autosuficiencia-radical" transform="translate(332.963967, 865.920089)">
                <g id="Group-3">
                    <polygon id="path108" fill="#F9F4E9" transform="translate(75.590665, 75.590665) scale(-1, 1) rotate(-180.000000) translate(-75.590665, -75.590665) " points="151.18133 1.42108547e-14 0 1.42108547e-14 0 151.18133 151.18133 151.18133"></polygon>
                    <g id="g110" transform="translate(75.462131, 83.623331) scale(-1, 1) rotate(-180.000000) translate(-75.462131, -83.623331) translate(66.795465, 34.956666)" fill="#503C3A">
                        <path d="M3.9999999,29.3333326 L2.02666662,97.0093309 L15.5613329,97.0093309 L13.5866663,29.3333326 L3.9999999,29.3333326 Z M0.474666655,9.17199977 C0.474666655,14.2479996 3.9999999,17.9133329 8.79466645,17.9133329 C13.869333,17.9133329 17.1119996,14.2479996 17.1119996,9.17199977 C17.1119996,4.23733323 13.869333,0.430666656 8.79466645,0.430666656 C3.8599999,0.430666656 0.474666655,4.23733323 0.474666655,9.17199977" id="path112"></path>
                    </g>
                </g>
            </g>
        </g>
    </g>
</svg>