<?xml version="1.0" encoding="UTF-8"?>
<svg width="153px" height="152px" viewBox="0 0 153 152" version="1.1" xmlns="http://www.w3.org/2000/svg" xmlns:xlink="http://www.w3.org/1999/xlink">
    <!-- Generator: Sketch 59.1 (86144) - https://sketch.com -->
    <title>economia-del-regalo</title>
    <desc>Created with Sketch.</desc>
    <g id="Page-1" stroke="none" stroke-width="1" fill="none" fill-rule="evenodd">
        <g id="Artboard" transform="translate(-332.000000, -394.000000)" fill-rule="nonzero">
            <g id="economia-del-regalo" transform="translate(332.963967, 394.560101)">
                <polygon id="path40" fill="#F9F4E9" transform="translate(75.590665, 75.590665) scale(-1, 1) rotate(-180.000000) translate(-75.590665, -75.590665) " points="151.18133 1.42108547e-14 0 1.42108547e-14 0 151.18133 151.18133 151.18133"></polygon>
                <g id="g50" transform="translate(75.852666, 56.517864) scale(-1, 1) rotate(-180.000000) translate(-75.852666, -56.517864) translate(44.852666, 25.017864)" fill="#503C3A">
                    <path d="M30.6666659,10.6666664 C42.6506656,10.6666664 52.097332,19.4079995 52.097332,31.3919992 C52.097332,43.3773322 42.6506656,52.2586654 30.6666659,52.2586654 C18.8226662,52.2586654 9.37599977,43.3773322 9.37599977,31.3919992 C9.37599977,19.4079995 18.8226662,10.6666664 30.6666659,10.6666664 M30.6666659,62.5519984 C47.5853321,62.5519984 61.4026651,48.1706655 61.4026651,31.3919992 C61.4026651,14.6146663 47.5853321,0.233333327 30.6666659,0.233333327 C13.8879997,0.233333327 0.0719999982,14.6146663 0.0719999982,31.3919992 C0.0719999982,48.1706655 13.8879997,62.5519984 30.6666659,62.5519984" id="path52"></path>
                </g>
                <g id="g54" transform="translate(75.368399, 111.871997) scale(-1, 1) rotate(-180.000000) translate(-75.368399, -111.871997) translate(25.868399, 97.871997)" fill="#503C3A">
                    <path d="M71.9999982,11.9999997 C74.0666648,11.9999997 75.9933314,12.401333 77.7813314,13.1986663 C79.5653313,13.9986663 81.139998,15.0799996 82.5039979,16.4426663 C83.8653312,17.8053329 84.9479979,19.4026662 85.7479979,21.2359995 C86.5439978,23.0693328 86.9453312,25.0213327 86.9453312,27.086666 L98.9306642,27.086666 C98.9306642,23.3293328 98.2253309,19.8253328 96.8159976,16.5826663 C95.4066643,13.3399997 93.477331,10.4986664 91.0346644,8.0519998 C88.5893311,5.60933319 85.7226645,3.68133324 82.4333313,2.27199994 C79.1413314,0.861333312 75.6653314,0.155999996 71.9999982,0.155999996 L49.5813321,0.155999996 L27.4439993,0.155999996 C23.6839994,0.155999996 20.1826662,0.861333312 16.9386662,2.27199994 C13.6959997,3.68133324 10.8519997,5.60933319 8.40933312,8.0519998 C5.96399985,10.4986664 4.03733323,13.3399997 2.62799993,16.5826663 C1.2173333,19.8253328 0.513333321,23.3293328 0.513333321,27.086666 L12.497333,27.086666 C12.497333,25.0213327 12.897333,23.0693328 13.6959997,21.2359995 C14.493333,19.4026662 15.5506663,17.8053329 16.8679996,16.4426663 C18.1839995,15.0799996 19.7586662,13.9986663 21.5919995,13.1986663 C23.4253327,12.401333 25.374666,11.9999997 27.4439993,11.9999997 L49.5813321,11.9999997 L71.9999982,11.9999997 Z" id="path56"></path>
                </g>
            </g>
        </g>
    </g>
</svg>