<?xml version="1.0" encoding="UTF-8"?>
<svg width="153px" height="152px" viewBox="0 0 153 152" version="1.1" xmlns="http://www.w3.org/2000/svg" xmlns:xlink="http://www.w3.org/1999/xlink">
    <!-- Generator: Sketch 59.1 (86144) - https://sketch.com -->
    <title>esfuerzo-comunal</title>
    <desc>Created with Sketch.</desc>
    <g id="Page-1" stroke="none" stroke-width="1" fill="none" fill-rule="evenodd">
        <g id="Artboard" transform="translate(-332.000000, -1337.000000)" fill-rule="nonzero">
            <g id="esfuerzo-comunal" transform="translate(332.963967, 1337.280077)">
                <polygon id="path216" fill="#F9F4E9" transform="translate(75.590665, 75.590665) scale(-1, 1) rotate(-180.000000) translate(-75.590665, -75.590665) " points="151.18133 1.42108547e-14 0 1.42108547e-14 0 151.18133 151.18133 151.18133"></polygon>
                <g id="g218" transform="translate(75.368399, 77.201464) scale(-1, 1) rotate(-180.000000) translate(-75.368399, -77.201464) translate(25.868399, 63.201464)" fill="#503C3A">
                    <path d="M71.9999982,11.9999997 C74.0666648,11.9999997 75.9933314,12.401333 77.7813314,13.197333 C79.5653313,13.9986663 81.139998,15.0799996 82.5039979,16.4413329 C83.8653312,17.8053329 84.9479979,19.4026662 85.7479979,21.2359995 C86.5439978,23.0693328 86.9453312,25.0213327 86.9453312,27.086666 L98.9306642,27.086666 C98.9306642,23.3279994 98.2253309,19.8253328 96.8159976,16.5826663 C95.4066643,13.3399997 93.477331,10.4973331 91.0346644,8.0519998 C88.5893311,5.60799986 85.7226645,3.68133324 82.4333313,2.27066661 C79.1413314,0.861333312 75.6653314,0.155999996 71.9999982,0.155999996 L49.5813321,0.155999996 L27.4439993,0.155999996 C23.6839994,0.155999996 20.1826662,0.861333312 16.9386662,2.27066661 C13.6959997,3.68133324 10.8519997,5.60799986 8.40933312,8.0519998 C5.96399985,10.4973331 4.03733323,13.3399997 2.62799993,16.5826663 C1.2173333,19.8253328 0.513333321,23.3279994 0.513333321,27.086666 L12.497333,27.086666 C12.497333,25.0213327 12.897333,23.0693328 13.6959997,21.2359995 C14.493333,19.4026662 15.5506663,17.8053329 16.8679996,16.4413329 C18.1839995,15.0799996 19.7586662,13.9986663 21.5919995,13.197333 C23.4253327,12.401333 25.374666,11.9999997 27.4439993,11.9999997 L49.5813321,11.9999997 L71.9999982,11.9999997 Z" id="path220"></path>
                </g>
                <g id="g222" transform="translate(43.982932, 106.967064) scale(-1, 1) rotate(-180.000000) translate(-43.982932, -106.967064) translate(37.482932, 100.967064)" fill="#503C3A">
                    <path d="M6.6666665,0 C5.06799987,0 3.68266657,0.585333319 2.50799994,1.76266662 C1.33066663,2.93599993 0.745333315,4.37066656 0.745333315,6.06266652 C0.745333315,7.65999981 1.33066663,9.04533311 2.50799994,10.2226664 C3.68266657,11.397333 5.06799987,11.9839997 6.6666665,11.9839997 C8.35999979,11.9839997 9.79066642,11.397333 10.9679997,10.2226664 C12.141333,9.04533311 12.7306663,7.65999981 12.7306663,6.06266652 C12.7306663,4.37066656 12.141333,2.93599993 10.9679997,1.76266662 C9.79066642,0.585333319 8.35999979,0 6.6666665,0" id="path224"></path>
                </g>
                <g id="g226" transform="translate(75.352665, 108.300397) scale(-1, 1) rotate(-180.000000) translate(-75.352665, -108.300397) translate(68.852665, 102.300397)" fill="#503C3A">
                    <path d="M6.6666665,0 C5.06799987,0 3.68266657,0.585333319 2.50799994,1.76266662 C1.33066663,2.93599993 0.745333315,4.37066656 0.745333315,6.06266652 C0.745333315,7.65999981 1.33066663,9.04533311 2.50799994,10.2226664 C3.68266657,11.397333 5.06799987,11.9839997 6.6666665,11.9839997 C8.35999979,11.9839997 9.79066642,11.397333 10.9679997,10.2226664 C12.141333,9.04533311 12.7306663,7.65999981 12.7306663,6.06266652 C12.7306663,4.37066656 12.141333,2.93599993 10.9679997,1.76266662 C9.79066642,0.585333319 8.35999979,0 6.6666665,0" id="path228"></path>
                </g>
                <g id="g230" transform="translate(106.721197, 106.967064) scale(-1, 1) rotate(-180.000000) translate(-106.721197, -106.967064) translate(100.221197, 100.967064)" fill="#503C3A">
                    <path d="M6.6666665,0 C5.06799987,0 3.68266657,0.585333319 2.50799994,1.76266662 C1.33066663,2.93599993 0.745333315,4.37066656 0.745333315,6.06266652 C0.745333315,7.65999981 1.33066663,9.04533311 2.50799994,10.2226664 C3.68266657,11.397333 5.06799987,11.9839997 6.6666665,11.9839997 C8.35999979,11.9839997 9.79066642,11.397333 10.9679997,10.2226664 C12.141333,9.04533311 12.7306663,7.65999981 12.7306663,6.06266652 C12.7306663,4.37066656 12.141333,2.93599993 10.9679997,1.76266662 C9.79066642,0.585333319 8.35999979,0 6.6666665,0" id="path232"></path>
                </g>
                <g id="g234" transform="translate(134.183463, 92.465864) scale(-1, 1) rotate(-180.000000) translate(-134.183463, -92.465864) translate(127.683463, 86.465864)" fill="#503C3A">
                    <path d="M6.6666665,0 C5.06799987,0 3.68266657,0.586666652 2.50799994,1.76266662 C1.33066663,2.93733326 0.745333315,4.37066656 0.745333315,6.06399985 C0.745333315,7.66133314 1.33066663,9.04666644 2.50799994,10.2226664 C3.68266657,11.397333 5.06799987,11.985333 6.6666665,11.985333 C8.35999979,11.985333 9.79066642,11.397333 10.9679997,10.2226664 C12.141333,9.04666644 12.7306663,7.66133314 12.7306663,6.06399985 C12.7306663,4.37066656 12.141333,2.93733326 10.9679997,1.76266662 C9.79066642,0.586666652 8.35999979,0 6.6666665,0" id="path236"></path>
                </g>
                <g id="g238" transform="translate(16.522133, 92.465864) scale(-1, 1) rotate(-180.000000) translate(-16.522133, -92.465864) translate(10.022133, 86.465864)" fill="#503C3A">
                    <path d="M6.6666665,0 C5.06799987,0 3.68266657,0.586666652 2.50799994,1.76266662 C1.33066663,2.93733326 0.745333315,4.37066656 0.745333315,6.06399985 C0.745333315,7.66133314 1.33066663,9.04666644 2.50799994,10.2226664 C3.68266657,11.397333 5.06799987,11.985333 6.6666665,11.985333 C8.35999979,11.985333 9.79066642,11.397333 10.9679997,10.2226664 C12.141333,9.04666644 12.7306663,7.66133314 12.7306663,6.06399985 C12.7306663,4.37066656 12.141333,2.93733326 10.9679997,1.76266662 C9.79066642,0.586666652 8.35999979,0 6.6666665,0" id="path240"></path>
                </g>
            </g>
        </g>
    </g>
</svg>