<?xml version="1.0" encoding="UTF-8"?>
<svg width="153px" height="152px" viewBox="0 0 153 152" version="1.1" xmlns="http://www.w3.org/2000/svg" xmlns:xlink="http://www.w3.org/1999/xlink">
    <!-- Generator: Sketch 59.1 (86144) - https://sketch.com -->
    <title>expresion-radical</title>
    <desc>Created with Sketch.</desc>
    <g id="Page-1" stroke="none" stroke-width="1" fill="none" fill-rule="evenodd">
        <g id="Artboard" transform="translate(-332.000000, -1101.000000)" fill-rule="nonzero">
            <g id="expresion-radical" transform="translate(332.963967, 1101.600083)">
                <polygon id="path102" fill="#F9F4E9" transform="translate(75.590665, 75.590665) scale(-1, 1) rotate(-180.000000) translate(-75.590665, -75.590665) " points="151.18133 1.42108547e-14 0 1.42108547e-14 0 151.18133 151.18133 151.18133"></polygon>
                <g id="g104" transform="translate(75.553199, 96.879597) scale(-1, 1) rotate(-180.000000) translate(-75.553199, -96.879597) translate(50.053199, 71.379597)" fill="#503C3A">
                    <polygon id="path106" points="42.6666656 45.3333322 29.2719993 27.7093326 29.2719993 27.4279993 50.5626654 30.2479992 50.5626654 20.6599995 29.2719993 23.1973328 29.2719993 22.9159994 42.8066656 5.99733318 33.9239992 0.92133331 25.4653327 20.6599995 25.182666 20.6599995 16.0186663 0.779999981 7.98133313 5.85599985 21.3759995 23.0559994 21.3759995 23.3386661 0.510666654 20.6599995 0.510666654 30.2479992 21.2359995 27.5679993 21.2359995 27.850666 7.98133313 45.0519989 16.5839996 49.9866654 25.3239994 30.3893326 25.606666 30.3893326 34.2053325 50.1266654"></polygon>
                </g>
            </g>
        </g>
    </g>
</svg>