<?xml version="1.0" encoding="UTF-8"?>
<svg width="153px" height="153px" viewBox="0 0 153 153" version="1.1" xmlns="http://www.w3.org/2000/svg" xmlns:xlink="http://www.w3.org/1999/xlink">
    <!-- Generator: Sketch 59.1 (86144) - https://sketch.com -->
    <title>inclusion-radical</title>
    <desc>Created with Sketch.</desc>
    <g id="Page-1" stroke="none" stroke-width="1" fill="none" fill-rule="evenodd">
        <g id="Artboard" transform="translate(-332.000000, -157.000000)" fill-rule="nonzero">
            <g id="inclusion-radical" transform="translate(332.000000, 157.000000)">
                <g id="g130" transform="translate(76.666633, 76.106769) scale(-1, 1) rotate(-180.000000) translate(-76.666633, -76.106769) translate(0.666633, 0.106769)">
                    <g id="g242" transform="translate(0.000000, -0.000000)">
                        <polygon id="path250" fill="#F9F4E9" points="151.478663 0.0453333072 0.297333301 0.0453333072 0.297333301 151.226663 151.478663 151.226663"></polygon>
                        <g id="g252" transform="translate(123.362264, 30.663066)" fill="#503C3A">
                            <path d="M9.3333331,18.6666662 C10.7426664,17.8213329 11.6586664,16.6226663 12.0826664,15.0719996 C12.505333,13.521333 12.3399997,11.9919997 11.5879997,10.4893331 L5.52666653,0.0546666653 L2.98799993,1.60666663 L0.307999992,3.15733325 L3.26933325,8.23333313 C1.85999995,9.07999977 0.942666643,10.2999997 0.52133332,11.8986664 C0.0973333309,13.497333 0.307999992,15.001333 1.15466664,16.4106663 C1.90666662,17.8213329 3.08133326,18.7586662 4.67999988,19.2319995 C6.27733318,19.6999995 7.8279998,19.5133328 9.3333331,18.6666662" id="path254"></path>
                        </g>
                        <g id="g256" transform="translate(51.776399, 37.767866)" fill="#503C3A">
                            <path d="M6.6666665,0 C5.06799987,0 3.68266657,0.586666652 2.50799994,1.76399996 C1.33066663,2.93733326 0.745333315,4.37066656 0.745333315,6.06399985 C0.745333315,7.66133314 1.33066663,9.04666644 2.50799994,10.2226664 C3.68266657,11.397333 5.06799987,11.985333 6.6666665,11.985333 C8.35999979,11.985333 9.79066642,11.397333 10.9679997,10.2226664 C12.141333,9.04666644 12.7306663,7.66133314 12.7306663,6.06399985 C12.7306663,4.37066656 12.141333,2.93733326 10.9679997,1.76399996 C9.79066642,0.586666652 8.35999979,0 6.6666665,0" id="path258"></path>
                        </g>
                        <g id="g260" transform="translate(52.203465, 11.360400)" fill="#503C3A">
                            <path d="M9.3333331,18.6666662 C10.7426664,17.8213329 11.6586664,16.6226663 12.0826664,15.0719996 C12.505333,13.5199997 12.3399997,11.9919997 11.5879997,10.4893331 L5.52666653,0.0546666653 L2.98799993,1.60666663 L0.307999992,3.15733325 L3.26933325,8.23333313 C1.85999995,9.07866644 0.942666643,10.2999997 0.52133332,11.8986664 C0.0973333309,13.4959997 0.307999992,14.9999996 1.15466664,16.4106663 C1.90666662,17.8213329 3.08133326,18.7586662 4.67999988,19.2306662 C6.27733318,19.6999995 7.8279998,19.5133328 9.3333331,18.6666662" id="path262"></path>
                        </g>
                        <g id="g264" transform="translate(87.496398, 57.899465)" fill="#503C3A">
                            <path d="M6.6666665,0 C4.97466654,0 3.53999991,0.585333319 2.36533327,1.76266662 C1.19066664,2.93733326 0.603999985,4.32266656 0.603999985,5.92133319 C0.603999985,7.61333314 1.19066664,9.04666644 2.36533327,10.2226664 C3.53999991,11.397333 4.97466654,11.985333 6.6666665,11.985333 C8.35999979,11.985333 9.76933309,11.397333 10.8973331,10.2226664 C12.025333,9.04666644 12.5879997,7.61333314 12.5879997,5.92133319 C12.5879997,4.32266656 12.025333,2.93733326 10.8973331,1.76266662 C9.76933309,0.585333319 8.35999979,0 6.6666665,0" id="path266"></path>
                        </g>
                        <g id="g268" transform="translate(87.496398, 37.753599)" fill="#503C3A">
                            <path d="M6.6666665,11.9999997 C8.35999979,11.9999997 9.76933309,11.4119997 10.8973331,10.2373331 C12.025333,9.06133311 12.5879997,7.62933314 12.5879997,5.93599985 C12.5879997,4.33599989 12.025333,2.95199993 10.8973331,1.77733329 C9.76933309,0.601333318 8.35999979,0.0146666663 6.6666665,0.0146666663 C4.97466654,0.0146666663 3.53999991,0.601333318 2.36533327,1.77733329 C1.19066664,2.95199993 0.603999985,4.33599989 0.603999985,5.93599985 C0.603999985,7.62933314 1.19066664,9.06133311 2.36533327,10.2373331 C3.53999991,11.4119997 4.97466654,11.9999997 6.6666665,11.9999997" id="path270"></path>
                        </g>
                        <g id="g272" transform="translate(16.690533, 37.767866)" fill="#503C3A">
                            <path d="M6.6666665,0 C5.06799987,0 3.68266657,0.586666652 2.50799994,1.76399996 C1.33066663,2.93733326 0.745333315,4.37066656 0.745333315,6.06399985 C0.745333315,7.66133314 1.33066663,9.04666644 2.50799994,10.2226664 C3.68266657,11.397333 5.06799987,11.985333 6.6666665,11.985333 C8.35999979,11.985333 9.79066642,11.397333 10.9679997,10.2226664 C12.141333,9.04666644 12.7306663,7.66133314 12.7306663,6.06399985 C12.7306663,4.37066656 12.141333,2.93733326 10.9679997,1.76399996 C9.79066642,0.586666652 8.35999979,0 6.6666665,0" id="path274"></path>
                        </g>
                    </g>
                </g>
            </g>
        </g>
    </g>
</svg>